<svg width="80" height="81" viewBox="0 0 80 81" fill="none" xmlns="http://www.w3.org/2000/svg">
<g clip-path="url(#clip0_48_409)">
<path d="M80 48.1449L57.9671 40.5L80 32.8551C80 32.8551 65.0902 26.9548 77.4661 11.8683C77.5874 11.6255 71.6707 8.18131 71.6707 8.18131L47.2124 33.2221L54.3737 0.76788L48.1825 0C44.6529 6.0527 40 22.2685 40 22.2685C40 22.2685 35.3471 6.05834 31.8175 0L25.6263 0.76788L32.7876 33.2164L8.32934 8.18131C8.32934 8.18131 2.41264 11.6198 2.53391 11.8683C14.9098 26.9548 0 32.8551 0 32.8551L22.0329 40.5L0 48.1449C0 48.1449 14.9098 54.0452 2.53391 69.1317C2.41264 69.3745 8.32934 72.8187 8.32934 72.8187L32.7876 47.7779L25.6263 80.2265L31.8175 80.9944C35.3471 74.9417 40 58.7259 40 58.7259C40 58.7259 44.6529 74.936 48.1825 80.9944L54.3737 80.2265L47.2124 47.7779L71.6707 72.8187C71.6707 72.8187 77.5874 69.3802 77.4661 69.1317C65.0902 54.0452 80 48.1449 80 48.1449Z" fill="black"/>
</g>
<defs>
<clipPath id="clip0_48_409">
<rect width="80" height="81" fill="white"/>
</clipPath>
</defs>
</svg>
